<svg id="Layer_1" data-name="Layer 1" xmlns="http://www.w3.org/2000/svg" xmlns:xlink="http://www.w3.org/1999/xlink" viewBox="0 0 30 30"><defs><style>.cls-1{fill:none;}.cls-2{clip-path:url(#clip-path);}</style><clipPath id="clip-path"><rect class="cls-1" x="3.48" y="1.06" width="24.26" height="28.62"/></clipPath></defs><title>icons</title><g class="cls-2"><path d="M11.07,7.44s0,0,0,0c.19-4.23,3.2-4.69,4.49-4.69h.07c1.59,0,4.3.69,4.49,4.69a.12.12,0,0,0,0,0s.42,4.06-1.46,6.17a3.87,3.87,0,0,1-3,1.26h-.06a3.86,3.86,0,0,1-3-1.26c-1.87-2.1-1.47-6.13-1.46-6.17m4.43,9h.19a5.45,5.45,0,0,0,4.16-1.8c2.27-2.56,1.9-7,1.85-7.37-.15-3.15-1.64-4.65-2.86-5.35a6.55,6.55,0,0,0-3.18-.83h-.1a6.58,6.58,0,0,0-3.18.81c-1.24.7-2.75,2.21-2.9,5.38,0,.42-.42,4.81,1.85,7.37a5.42,5.42,0,0,0,4.16,1.8"/><path d="M27.73,23.75v0s0-.09,0-.15c0-1.17-.11-3.9-2.67-4.78l-.06,0a17.07,17.07,0,0,1-4.9-2.23.8.8,0,1,0-.92,1.3,18.4,18.4,0,0,0,5.39,2.46c1.38.49,1.53,2,1.57,3.31a1.14,1.14,0,0,0,0,.15A10.76,10.76,0,0,1,26,25.6,21.73,21.73,0,0,1,15.61,28,21.85,21.85,0,0,1,5.19,25.6a10.18,10.18,0,0,1-.12-1.82s0-.09,0-.15c0-1.35.19-2.82,1.57-3.31A18.56,18.56,0,0,0,12,17.86a.8.8,0,1,0-.92-1.3,16.83,16.83,0,0,1-4.9,2.23l-.06,0c-2.56.88-2.64,3.61-2.67,4.78a1.13,1.13,0,0,1,0,.15v0a9,9,0,0,0,.3,2.67.75.75,0,0,0,.31.37c.18.12,4.42,2.82,11.52,2.82a22.39,22.39,0,0,0,11.52-2.82.79.79,0,0,0,.31-.37,9.5,9.5,0,0,0,.28-2.67"/></g></svg>