<svg id="Layer_1" data-name="Layer 1" xmlns="http://www.w3.org/2000/svg" xmlns:xlink="http://www.w3.org/1999/xlink" viewBox="0 0 30 30"><defs><style>.cls-1{fill:none;}.cls-2{clip-path:url(#clip-path);}</style><clipPath id="clip-path"><rect class="cls-1" x="5.96" y="5.3" width="19.31" height="20.14"/></clipPath></defs><title>icons</title><g class="cls-2"><path d="M22.73,13.73v0A9.16,9.16,0,0,0,22,16.64a21.47,21.47,0,0,1-.56,5.19c-.42,1.57-.9,1.92-1,1.92-.67,0-1-.61-1.49-2.83-.41-1.8-1-4.26-3.34-4.26s-3.09,2.6-3.6,4.5c-.28,1-.7,2.63-1.19,2.63-.08,0-.56-.33-1-1.91a20.55,20.55,0,0,1-.62-5.23,9.05,9.05,0,0,0-.73-2.94C7.78,11.89,7.1,10,8.21,8.4,9.08,7.12,9.77,7,10.32,7a7.12,7.12,0,0,1,2,.48,9.78,9.78,0,0,0,3.15.67,9.84,9.84,0,0,0,3.11-.64h0a7,7,0,0,1,2-.47c.57,0,1.28.17,2.23,1.46,1.14,1.54.47,3.45-.19,5.3m1.52-6.29a4.37,4.37,0,0,0-3.56-2.13,8.23,8.23,0,0,0-2.55.55h0a8.32,8.32,0,0,1-2.59.56,8.39,8.39,0,0,1-2.62-.58,8.35,8.35,0,0,0-2.57-.57A4.14,4.14,0,0,0,6.84,7.46c-1.59,2.32-.69,4.81,0,6.81a8.06,8.06,0,0,1,.63,2.37c0,3.27.69,8.79,3.27,8.79,1.77,0,2.31-2.05,2.79-3.87s1-3.27,2-3.27,1.25.88,1.72,3c.41,1.83.93,4.12,3.1,4.12,3,0,3.27-6.7,3.27-8.76a8.24,8.24,0,0,1,.61-2.32v0c.72-2,1.62-4.59,0-6.84"/></g></svg>