<svg id="Layer_1" data-name="Layer 1" xmlns="http://www.w3.org/2000/svg" xmlns:xlink="http://www.w3.org/1999/xlink" viewBox="0 0 30 30"><defs><style>.cls-1{fill:none;}.cls-2{clip-path:url(#clip-path);}</style><clipPath id="clip-path"><rect class="cls-1" x="4.3" y="1.07" width="21.4" height="27.85"/></clipPath></defs><title>icons</title><g class="cls-2"><path d="M6.44,27.27a10.16,10.16,0,0,1,5.37-4.13.79.79,0,0,0,.55-.75v-3a.79.79,0,0,0-.8-.79,8.39,8.39,0,0,1-4.41-.94l.17-.17C8.47,16.33,9,14,8.94,10.7c-.15-6.16,2.47-7.16,3.58-7.58h0a5.36,5.36,0,0,1,1.86-.37,3.17,3.17,0,0,1,2.35.91.78.78,0,0,0,.68.28l.38,0a2.61,2.61,0,0,1,2.05.87C21,6,21.46,8.6,21.14,11.89s.71,5,1.61,5.8a9.39,9.39,0,0,1-4.22.92H18.4a.81.81,0,0,0-.57.22.79.79,0,0,0-.24.57v3a.79.79,0,0,0,.55.75,10.25,10.25,0,0,1,5.4,4.09H6.44Zm19.18.45a11.74,11.74,0,0,0-6.43-5.85v-1.7c1.39-.08,4-.43,5.53-2a.8.8,0,0,0,.2-.76.79.79,0,0,0-.55-.56s-2-.7-1.64-4.83a18,18,0,0,0-.08-4.7,7.16,7.16,0,0,0-1.56-3.64A4.17,4.17,0,0,0,17.85,2.3H17.7a4.93,4.93,0,0,0-3.26-1.17A6.73,6.73,0,0,0,12,1.62h0A6,6,0,0,0,9.06,3.71c-1.2,1.6-1.78,4-1.71,7S6.92,15.3,6.49,16s-.7.71-.79.73a.72.72,0,0,0-.69.39.8.8,0,0,0,.08.86,4.18,4.18,0,0,0,1.47,1.19,9.71,9.71,0,0,0,4.22,1v1.61a11.79,11.79,0,0,0-6.4,5.9.79.79,0,0,0,.71,1.13H24.9a.79.79,0,0,0,.67-.37.81.81,0,0,0,0-.77"/></g></svg>