<svg id="Layer_1" data-name="Layer 1" xmlns="http://www.w3.org/2000/svg" xmlns:xlink="http://www.w3.org/1999/xlink" viewBox="0 0 30 30"><defs><style>.cls-1{fill:none;}.cls-2{clip-path:url(#clip-path);}</style><clipPath id="clip-path"><rect class="cls-1" x="5.14" y="5.51" width="19.72" height="19.72"/></clipPath></defs><title>icons</title><g class="cls-2"><path d="M23.05,21A2.35,2.35,0,0,1,22,22.83a4,4,0,0,1-3.75.15,5.17,5.17,0,0,1-2.47-3.66,4,4,0,0,0,2.43-1.5,5.58,5.58,0,0,0,2.23.74,3.77,3.77,0,0,1,1.95.71A2,2,0,0,1,23.05,21m-11.24-.26a3.78,3.78,0,0,1-.71,1.95,2,2,0,0,1-1.77.69,2.35,2.35,0,0,1-1.79-1.08,4,4,0,0,1-.15-3.75A5.17,5.17,0,0,1,11,16.12a4,4,0,0,0,1.5,2.43,5.6,5.6,0,0,0-.74,2.23M7.63,11.46a2,2,0,0,1-.69-1.77A2.35,2.35,0,0,1,8,7.91a4,4,0,0,1,3.75-.15,5.17,5.17,0,0,1,2.47,3.66,4,4,0,0,0-2.43,1.5,5.56,5.56,0,0,0-2.23-.74,3.78,3.78,0,0,1-1.95-.71M18.18,10A3.76,3.76,0,0,1,18.89,8a2,2,0,0,1,1.77-.69A2.35,2.35,0,0,1,22.45,8.4a4,4,0,0,1,.15,3.75,5.17,5.17,0,0,1-3.65,2.47,4,4,0,0,0-1.5-2.44A5.61,5.61,0,0,0,18.18,10M15,17.6a2.23,2.23,0,1,1,2.23-2.23A2.23,2.23,0,0,1,15,17.6m8.51.29a5.38,5.38,0,0,0-2.79-1.1,4.27,4.27,0,0,1-1.46-.42A6.93,6.93,0,0,0,24.19,13,5.77,5.77,0,0,0,24,7.56a4.12,4.12,0,0,0-3.19-2,3.76,3.76,0,0,0-3.33,1.33,5.38,5.38,0,0,0-1.1,2.79A4.32,4.32,0,0,1,16,11.1a6.94,6.94,0,0,0-3.41-4.93,5.77,5.77,0,0,0-5.41.16,4.12,4.12,0,0,0-2,3.19,3.75,3.75,0,0,0,1.33,3.33,5.4,5.4,0,0,0,2.79,1.1,4.29,4.29,0,0,1,1.45.41,6.93,6.93,0,0,0-4.93,3.41A5.77,5.77,0,0,0,6,23.18a4.12,4.12,0,0,0,3.19,2l.43,0a3.73,3.73,0,0,0,2.91-1.35,5.39,5.39,0,0,0,1.1-2.79A4.35,4.35,0,0,1,14,19.64a6.93,6.93,0,0,0,3.41,4.93,5.42,5.42,0,0,0,2.49.6,6.23,6.23,0,0,0,2.92-.76,4.12,4.12,0,0,0,2-3.19,3.76,3.76,0,0,0-1.33-3.33"/></g></svg>