<svg id="Layer_1" data-name="Layer 1" xmlns="http://www.w3.org/2000/svg" viewBox="0 0 30 30"><title>icons</title><path d="M19.68,24.07v-5.4a.87.87,0,0,0-.87-.87h-6.4a.87.87,0,0,0-.87.87v5.4H8V10.95h2.53v3.4a.87.87,0,0,0,.87.87h8.53a.87.87,0,0,0,.87-.87v-3.4h2.53V24.07Zm-3.2-4.53h1.46v4.53H16.48Zm-3.2,0h1.46v4.53H13.28ZM12.21,6.68H19v6.79H12.21ZM26.33,24.07H25v-14a.87.87,0,0,0-.87-.87h-3.4V5.81a.87.87,0,0,0-.87-.87H11.35a.87.87,0,0,0-.87.87v3.4H7.08a.87.87,0,0,0-.87.87v14H4.9a.87.87,0,1,0,0,1.74H26.33a.87.87,0,0,0,0-1.74"/><path d="M13.79,11h1v1a.87.87,0,1,0,1.74,0V11h1a.87.87,0,1,0,0-1.74h-1v-1a.87.87,0,1,0-1.74,0v1h-1a.87.87,0,0,0,0,1.74"/></svg>