<svg id="Layer_1" data-name="Layer 1" xmlns="http://www.w3.org/2000/svg" xmlns:xlink="http://www.w3.org/1999/xlink" viewBox="0 0 30 30"><defs><style>.cls-1{fill:none;}.cls-2{clip-path:url(#clip-path);}</style><clipPath id="clip-path"><rect class="cls-1" x="5.49" y="5.75" width="20.25" height="19.26"/></clipPath></defs><title>icons</title><g class="cls-2"><path d="M14.88,17.23l-.69-.69L22.9,7.83l.69.69Zm-2.58,3.85a5.94,5.94,0,0,1-3.85,2.06A2.23,2.23,0,0,1,7.71,23l5.17-5.17a2.78,2.78,0,0,1-.57,3.23M25.42,7.91,23.51,6a.86.86,0,0,0-1.22,0l-9.93,9.93h0L5.74,22.55a.86.86,0,0,0,0,1.22,3.75,3.75,0,0,0,2.71,1.1,7.58,7.58,0,0,0,5.07-2.56,4.58,4.58,0,0,0,1.36-3,.86.86,0,0,0,.61-.25l9.93-9.93a.86.86,0,0,0,0-1.22"/></g></svg>